<?xml version="1.0" encoding="UTF-8"?>
<svg id="Layer_2" data-name="Layer 2" xmlns="http://www.w3.org/2000/svg" viewBox="0 0 100 400">
  <defs>
    <style>
      .cls-1 {
        fill: #120926;
      }

      .cls-2 {
        fill: #19c8ef;
      }
    </style>
  </defs>
  <g id="Layer_1-2" data-name="Layer 1">
    <g>
      <g>
        <rect class="cls-2" x=".5" y="300.5" width="99" height="99"/>
        <path class="cls-1" d="M1,301h98v98H1v-98M0,300v100h100s0-100,0-100H0Z"/>
      </g>
      <g>
        <rect class="cls-2" x=".5" y="200.5" width="99" height="99"/>
        <path class="cls-1" d="M1,201h98v98H1v-98M0,200v100h100s0-100,0-100H0Z"/>
      </g>
      <g>
        <rect class="cls-2" x=".5" y="100.5" width="99" height="99"/>
        <path class="cls-1" d="M1,101h98v98H1v-98M0,100v100h100s0-100,0-100H0Z"/>
      </g>
      <g>
        <rect class="cls-2" x=".5" y=".5" width="99" height="99"/>
        <path class="cls-1" d="M1,1h98v98H1V1M0,0v100h100S100,0,100,0H0Z"/>
      </g>
    </g>
  </g>
</svg>